<mxfile host="drawio-plugin" modified="2022-02-13T18:37:45.102Z" agent="5.0 (Windows NT 6.2; Win64; x64) AppleWebKit/537.36 (KHTML, like Gecko) Chrome/89.0.4389.114 Safari/537.36" etag="FzJWDwVfvdLtUOBssl4m" version="15.5.4" type="embed"><diagram id="DMilO55j4B88B5tWhcKt" name="Page-1"><mxGraphModel dx="788" dy="483" grid="1" gridSize="10" guides="1" tooltips="1" connect="1" arrows="1" fold="1" page="1" pageScale="1" pageWidth="1169" pageHeight="827" background="none" math="0" shadow="0"><root><mxCell id="0"/><mxCell id="1" parent="0"/><mxCell id="6N414X3jIMNz7iww7mdx-74" value="" style="edgeStyle=entityRelationEdgeStyle;fontSize=12;html=1;endArrow=ERmandOne;startArrow=ERmandOne;rounded=0;" parent="1" source="6N414X3jIMNz7iww7mdx-83" target="6N414X3jIMNz7iww7mdx-78" edge="1"><mxGeometry width="100" height="100" relative="1" as="geometry"><mxPoint x="270" y="120" as="sourcePoint"/><mxPoint x="360" y="115" as="targetPoint"/></mxGeometry></mxCell><mxCell id="6N414X3jIMNz7iww7mdx-75" value="Attendance" style="swimlane;childLayout=stackLayout;horizontal=1;startSize=30;horizontalStack=0;rounded=1;fontSize=14;fontStyle=0;strokeWidth=2;resizeParent=0;resizeLast=1;shadow=0;dashed=0;align=center;" parent="1" vertex="1"><mxGeometry x="640" y="70" width="160" height="150" as="geometry"/></mxCell><mxCell id="6N414X3jIMNz7iww7mdx-117" value="" style="shape=table;startSize=0;container=1;collapsible=1;childLayout=tableLayout;fixedRows=1;rowLines=0;fontStyle=0;align=center;resizeLast=1;strokeColor=none;fillColor=none;collapsible=0;" parent="6N414X3jIMNz7iww7mdx-75" vertex="1"><mxGeometry y="30" width="160" height="120" as="geometry"/></mxCell><mxCell id="6N414X3jIMNz7iww7mdx-118" value="" style="shape=tableRow;horizontal=0;startSize=0;swimlaneHead=0;swimlaneBody=0;fillColor=none;collapsible=0;dropTarget=0;points=[[0,0.5],[1,0.5]];portConstraint=eastwest;top=0;left=0;right=0;bottom=1;" parent="6N414X3jIMNz7iww7mdx-117" vertex="1"><mxGeometry width="160" height="30" as="geometry"/></mxCell><mxCell id="6N414X3jIMNz7iww7mdx-119" value="PK" style="shape=partialRectangle;connectable=0;fillColor=none;top=0;left=0;bottom=0;right=0;fontStyle=1;overflow=hidden;" parent="6N414X3jIMNz7iww7mdx-118" vertex="1"><mxGeometry width="30" height="30" as="geometry"><mxRectangle width="30" height="30" as="alternateBounds"/></mxGeometry></mxCell><mxCell id="6N414X3jIMNz7iww7mdx-120" value="ID" style="shape=partialRectangle;connectable=0;fillColor=none;top=0;left=0;bottom=0;right=0;align=left;spacingLeft=6;fontStyle=5;overflow=hidden;" parent="6N414X3jIMNz7iww7mdx-118" vertex="1"><mxGeometry x="30" width="130" height="30" as="geometry"><mxRectangle width="130" height="30" as="alternateBounds"/></mxGeometry></mxCell><mxCell id="6N414X3jIMNz7iww7mdx-138" value="" style="shape=tableRow;horizontal=0;startSize=0;swimlaneHead=0;swimlaneBody=0;fillColor=none;collapsible=0;dropTarget=0;points=[[0,0.5],[1,0.5]];portConstraint=eastwest;top=0;left=0;right=0;bottom=0;labelBorderColor=none;" parent="6N414X3jIMNz7iww7mdx-117" vertex="1"><mxGeometry y="30" width="160" height="30" as="geometry"/></mxCell><mxCell id="6N414X3jIMNz7iww7mdx-139" value="FK" style="shape=partialRectangle;connectable=0;fillColor=none;top=0;left=0;bottom=0;right=0;fontStyle=0;overflow=hidden;" parent="6N414X3jIMNz7iww7mdx-138" vertex="1"><mxGeometry width="30" height="30" as="geometry"><mxRectangle width="30" height="30" as="alternateBounds"/></mxGeometry></mxCell><mxCell id="6N414X3jIMNz7iww7mdx-140" value="Calendar.ID" style="shape=partialRectangle;connectable=0;fillColor=none;top=0;left=0;bottom=0;right=0;align=left;spacingLeft=6;fontStyle=0;overflow=hidden;labelBorderColor=none;" parent="6N414X3jIMNz7iww7mdx-138" vertex="1"><mxGeometry x="30" width="130" height="30" as="geometry"><mxRectangle width="130" height="30" as="alternateBounds"/></mxGeometry></mxCell><mxCell id="6N414X3jIMNz7iww7mdx-142" value="" style="shape=tableRow;horizontal=0;startSize=0;swimlaneHead=0;swimlaneBody=0;fillColor=none;collapsible=0;dropTarget=0;points=[[0,0.5],[1,0.5]];portConstraint=eastwest;top=0;left=0;right=0;bottom=0;" parent="6N414X3jIMNz7iww7mdx-117" vertex="1"><mxGeometry y="60" width="160" height="30" as="geometry"/></mxCell><mxCell id="6N414X3jIMNz7iww7mdx-143" value="FK" style="shape=partialRectangle;connectable=0;fillColor=none;top=0;left=0;bottom=0;right=0;fontStyle=0;overflow=hidden;" parent="6N414X3jIMNz7iww7mdx-142" vertex="1"><mxGeometry width="30" height="30" as="geometry"><mxRectangle width="30" height="30" as="alternateBounds"/></mxGeometry></mxCell><mxCell id="6N414X3jIMNz7iww7mdx-144" value="Event.ID" style="shape=partialRectangle;connectable=0;fillColor=none;top=0;left=0;bottom=0;right=0;align=left;spacingLeft=6;fontStyle=0;overflow=hidden;" parent="6N414X3jIMNz7iww7mdx-142" vertex="1"><mxGeometry x="30" width="130" height="30" as="geometry"><mxRectangle width="130" height="30" as="alternateBounds"/></mxGeometry></mxCell><mxCell id="6N414X3jIMNz7iww7mdx-146" value="" style="shape=tableRow;horizontal=0;startSize=0;swimlaneHead=0;swimlaneBody=0;fillColor=none;collapsible=0;dropTarget=0;points=[[0,0.5],[1,0.5]];portConstraint=eastwest;top=0;left=0;right=0;bottom=0;" parent="6N414X3jIMNz7iww7mdx-117" vertex="1"><mxGeometry y="90" width="160" height="30" as="geometry"/></mxCell><mxCell id="6N414X3jIMNz7iww7mdx-147" value="" style="shape=partialRectangle;connectable=0;fillColor=none;top=0;left=0;bottom=0;right=0;editable=1;overflow=hidden;" parent="6N414X3jIMNz7iww7mdx-146" vertex="1"><mxGeometry width="30" height="30" as="geometry"><mxRectangle width="30" height="30" as="alternateBounds"/></mxGeometry></mxCell><mxCell id="6N414X3jIMNz7iww7mdx-148" value="is_attending" style="shape=partialRectangle;connectable=0;fillColor=none;top=0;left=0;bottom=0;right=0;align=left;spacingLeft=6;overflow=hidden;" parent="6N414X3jIMNz7iww7mdx-146" vertex="1"><mxGeometry x="30" width="130" height="30" as="geometry"><mxRectangle width="130" height="30" as="alternateBounds"/></mxGeometry></mxCell><mxCell id="6N414X3jIMNz7iww7mdx-78" value="Calendar" style="swimlane;childLayout=stackLayout;horizontal=1;startSize=30;horizontalStack=0;rounded=1;fontSize=14;fontStyle=0;strokeWidth=2;resizeParent=0;resizeLast=1;shadow=0;dashed=0;align=center;" parent="1" vertex="1"><mxGeometry x="360" y="100" width="160" height="90" as="geometry"/></mxCell><mxCell id="6N414X3jIMNz7iww7mdx-113" value="" style="shape=table;startSize=0;container=1;collapsible=1;childLayout=tableLayout;fixedRows=1;rowLines=0;fontStyle=0;align=center;resizeLast=1;strokeColor=none;fillColor=none;collapsible=0;" parent="6N414X3jIMNz7iww7mdx-78" vertex="1"><mxGeometry y="30" width="160" height="30" as="geometry"/></mxCell><mxCell id="6N414X3jIMNz7iww7mdx-114" value="" style="shape=tableRow;horizontal=0;startSize=0;swimlaneHead=0;swimlaneBody=0;fillColor=none;collapsible=0;dropTarget=0;points=[[0,0.5],[1,0.5]];portConstraint=eastwest;top=0;left=0;right=0;bottom=1;" parent="6N414X3jIMNz7iww7mdx-113" vertex="1"><mxGeometry width="160" height="30" as="geometry"/></mxCell><mxCell id="6N414X3jIMNz7iww7mdx-115" value="PK" style="shape=partialRectangle;connectable=0;fillColor=none;top=0;left=0;bottom=0;right=0;fontStyle=1;overflow=hidden;" parent="6N414X3jIMNz7iww7mdx-114" vertex="1"><mxGeometry width="30" height="30" as="geometry"><mxRectangle width="30" height="30" as="alternateBounds"/></mxGeometry></mxCell><mxCell id="6N414X3jIMNz7iww7mdx-116" value="ID" style="shape=partialRectangle;connectable=0;fillColor=none;top=0;left=0;bottom=0;right=0;align=left;spacingLeft=6;fontStyle=5;overflow=hidden;" parent="6N414X3jIMNz7iww7mdx-114" vertex="1"><mxGeometry x="30" width="130" height="30" as="geometry"><mxRectangle width="130" height="30" as="alternateBounds"/></mxGeometry></mxCell><mxCell id="6N414X3jIMNz7iww7mdx-133" value="" style="shape=table;startSize=0;container=1;collapsible=1;childLayout=tableLayout;fixedRows=1;rowLines=0;fontStyle=0;align=center;resizeLast=1;strokeColor=none;fillColor=none;collapsible=0;" parent="6N414X3jIMNz7iww7mdx-78" vertex="1"><mxGeometry y="60" width="160" height="30" as="geometry"/></mxCell><mxCell id="6N414X3jIMNz7iww7mdx-134" value="" style="shape=tableRow;horizontal=0;startSize=0;swimlaneHead=0;swimlaneBody=0;fillColor=none;collapsible=0;dropTarget=0;points=[[0,0.5],[1,0.5]];portConstraint=eastwest;top=0;left=0;right=0;bottom=0;" parent="6N414X3jIMNz7iww7mdx-133" vertex="1"><mxGeometry width="160" height="30" as="geometry"/></mxCell><mxCell id="6N414X3jIMNz7iww7mdx-135" value="FK" style="shape=partialRectangle;connectable=0;fillColor=none;top=0;left=0;bottom=0;right=0;fontStyle=0;overflow=hidden;" parent="6N414X3jIMNz7iww7mdx-134" vertex="1"><mxGeometry width="30" height="30" as="geometry"><mxRectangle width="30" height="30" as="alternateBounds"/></mxGeometry></mxCell><mxCell id="6N414X3jIMNz7iww7mdx-136" value="User.ID" style="shape=partialRectangle;connectable=0;fillColor=none;top=0;left=0;bottom=0;right=0;align=left;spacingLeft=6;fontStyle=0;overflow=hidden;" parent="6N414X3jIMNz7iww7mdx-134" vertex="1"><mxGeometry x="30" width="130" height="30" as="geometry"><mxRectangle width="130" height="30" as="alternateBounds"/></mxGeometry></mxCell><mxCell id="6N414X3jIMNz7iww7mdx-80" value="Event" style="swimlane;childLayout=stackLayout;horizontal=1;startSize=30;horizontalStack=0;rounded=1;fontSize=14;fontStyle=0;strokeWidth=2;resizeParent=0;resizeLast=1;shadow=0;dashed=0;align=center;" parent="1" vertex="1"><mxGeometry x="920" y="40" width="160" height="210" as="geometry"/></mxCell><mxCell id="6N414X3jIMNz7iww7mdx-121" value="" style="shape=table;startSize=0;container=1;collapsible=1;childLayout=tableLayout;fixedRows=1;rowLines=0;fontStyle=0;align=center;resizeLast=1;strokeColor=none;fillColor=none;collapsible=0;" parent="6N414X3jIMNz7iww7mdx-80" vertex="1"><mxGeometry y="30" width="160" height="180" as="geometry"/></mxCell><mxCell id="6N414X3jIMNz7iww7mdx-122" value="" style="shape=tableRow;horizontal=0;startSize=0;swimlaneHead=0;swimlaneBody=0;fillColor=none;collapsible=0;dropTarget=0;points=[[0,0.5],[1,0.5]];portConstraint=eastwest;top=0;left=0;right=0;bottom=1;" parent="6N414X3jIMNz7iww7mdx-121" vertex="1"><mxGeometry width="160" height="30" as="geometry"/></mxCell><mxCell id="6N414X3jIMNz7iww7mdx-123" value="PK" style="shape=partialRectangle;connectable=0;fillColor=none;top=0;left=0;bottom=0;right=0;fontStyle=1;overflow=hidden;" parent="6N414X3jIMNz7iww7mdx-122" vertex="1"><mxGeometry width="30" height="30" as="geometry"><mxRectangle width="30" height="30" as="alternateBounds"/></mxGeometry></mxCell><mxCell id="6N414X3jIMNz7iww7mdx-124" value="ID" style="shape=partialRectangle;connectable=0;fillColor=none;top=0;left=0;bottom=0;right=0;align=left;spacingLeft=6;fontStyle=5;overflow=hidden;" parent="6N414X3jIMNz7iww7mdx-122" vertex="1"><mxGeometry x="30" width="130" height="30" as="geometry"><mxRectangle width="130" height="30" as="alternateBounds"/></mxGeometry></mxCell><mxCell id="6N414X3jIMNz7iww7mdx-166" value="" style="shape=tableRow;horizontal=0;startSize=0;swimlaneHead=0;swimlaneBody=0;fillColor=none;collapsible=0;dropTarget=0;points=[[0,0.5],[1,0.5]];portConstraint=eastwest;top=0;left=0;right=0;bottom=0;labelBorderColor=none;" parent="6N414X3jIMNz7iww7mdx-121" vertex="1"><mxGeometry y="30" width="160" height="30" as="geometry"/></mxCell><mxCell id="6N414X3jIMNz7iww7mdx-167" value="" style="shape=partialRectangle;connectable=0;fillColor=none;top=0;left=0;bottom=0;right=0;editable=1;overflow=hidden;labelBorderColor=none;" parent="6N414X3jIMNz7iww7mdx-166" vertex="1"><mxGeometry width="30" height="30" as="geometry"><mxRectangle width="30" height="30" as="alternateBounds"/></mxGeometry></mxCell><mxCell id="6N414X3jIMNz7iww7mdx-168" value="start_timestamp" style="shape=partialRectangle;connectable=0;fillColor=none;top=0;left=0;bottom=0;right=0;align=left;spacingLeft=6;overflow=hidden;labelBorderColor=none;" parent="6N414X3jIMNz7iww7mdx-166" vertex="1"><mxGeometry x="30" width="130" height="30" as="geometry"><mxRectangle width="130" height="30" as="alternateBounds"/></mxGeometry></mxCell><mxCell id="6N414X3jIMNz7iww7mdx-170" value="" style="shape=tableRow;horizontal=0;startSize=0;swimlaneHead=0;swimlaneBody=0;fillColor=none;collapsible=0;dropTarget=0;points=[[0,0.5],[1,0.5]];portConstraint=eastwest;top=0;left=0;right=0;bottom=0;labelBorderColor=none;" parent="6N414X3jIMNz7iww7mdx-121" vertex="1"><mxGeometry y="60" width="160" height="30" as="geometry"/></mxCell><mxCell id="6N414X3jIMNz7iww7mdx-171" value="" style="shape=partialRectangle;connectable=0;fillColor=none;top=0;left=0;bottom=0;right=0;editable=1;overflow=hidden;labelBorderColor=none;" parent="6N414X3jIMNz7iww7mdx-170" vertex="1"><mxGeometry width="30" height="30" as="geometry"><mxRectangle width="30" height="30" as="alternateBounds"/></mxGeometry></mxCell><mxCell id="6N414X3jIMNz7iww7mdx-172" value="end_timestamp" style="shape=partialRectangle;connectable=0;fillColor=none;top=0;left=0;bottom=0;right=0;align=left;spacingLeft=6;overflow=hidden;labelBorderColor=none;" parent="6N414X3jIMNz7iww7mdx-170" vertex="1"><mxGeometry x="30" width="130" height="30" as="geometry"><mxRectangle width="130" height="30" as="alternateBounds"/></mxGeometry></mxCell><mxCell id="6N414X3jIMNz7iww7mdx-174" value="" style="shape=tableRow;horizontal=0;startSize=0;swimlaneHead=0;swimlaneBody=0;fillColor=none;collapsible=0;dropTarget=0;points=[[0,0.5],[1,0.5]];portConstraint=eastwest;top=0;left=0;right=0;bottom=0;labelBorderColor=none;" parent="6N414X3jIMNz7iww7mdx-121" vertex="1"><mxGeometry y="90" width="160" height="30" as="geometry"/></mxCell><mxCell id="6N414X3jIMNz7iww7mdx-175" value="" style="shape=partialRectangle;connectable=0;fillColor=none;top=0;left=0;bottom=0;right=0;editable=1;overflow=hidden;labelBorderColor=none;" parent="6N414X3jIMNz7iww7mdx-174" vertex="1"><mxGeometry width="30" height="30" as="geometry"><mxRectangle width="30" height="30" as="alternateBounds"/></mxGeometry></mxCell><mxCell id="6N414X3jIMNz7iww7mdx-176" value="hostID" style="shape=partialRectangle;connectable=0;fillColor=none;top=0;left=0;bottom=0;right=0;align=left;spacingLeft=6;overflow=hidden;labelBorderColor=none;" parent="6N414X3jIMNz7iww7mdx-174" vertex="1"><mxGeometry x="30" width="130" height="30" as="geometry"><mxRectangle width="130" height="30" as="alternateBounds"/></mxGeometry></mxCell><mxCell id="6N414X3jIMNz7iww7mdx-178" value="" style="shape=tableRow;horizontal=0;startSize=0;swimlaneHead=0;swimlaneBody=0;fillColor=none;collapsible=0;dropTarget=0;points=[[0,0.5],[1,0.5]];portConstraint=eastwest;top=0;left=0;right=0;bottom=0;labelBorderColor=none;" parent="6N414X3jIMNz7iww7mdx-121" vertex="1"><mxGeometry y="120" width="160" height="30" as="geometry"/></mxCell><mxCell id="6N414X3jIMNz7iww7mdx-179" value="" style="shape=partialRectangle;connectable=0;fillColor=none;top=0;left=0;bottom=0;right=0;editable=1;overflow=hidden;labelBorderColor=none;" parent="6N414X3jIMNz7iww7mdx-178" vertex="1"><mxGeometry width="30" height="30" as="geometry"><mxRectangle width="30" height="30" as="alternateBounds"/></mxGeometry></mxCell><mxCell id="6N414X3jIMNz7iww7mdx-180" value="is_completed" style="shape=partialRectangle;connectable=0;fillColor=none;top=0;left=0;bottom=0;right=0;align=left;spacingLeft=6;overflow=hidden;labelBorderColor=none;" parent="6N414X3jIMNz7iww7mdx-178" vertex="1"><mxGeometry x="30" width="130" height="30" as="geometry"><mxRectangle width="130" height="30" as="alternateBounds"/></mxGeometry></mxCell><mxCell id="6N414X3jIMNz7iww7mdx-184" value="" style="shape=tableRow;horizontal=0;startSize=0;swimlaneHead=0;swimlaneBody=0;fillColor=none;collapsible=0;dropTarget=0;points=[[0,0.5],[1,0.5]];portConstraint=eastwest;top=0;left=0;right=0;bottom=0;labelBorderColor=none;" parent="6N414X3jIMNz7iww7mdx-121" vertex="1"><mxGeometry y="150" width="160" height="30" as="geometry"/></mxCell><mxCell id="6N414X3jIMNz7iww7mdx-185" value="" style="shape=partialRectangle;connectable=0;fillColor=none;top=0;left=0;bottom=0;right=0;editable=1;overflow=hidden;labelBorderColor=none;" parent="6N414X3jIMNz7iww7mdx-184" vertex="1"><mxGeometry width="30" height="30" as="geometry"><mxRectangle width="30" height="30" as="alternateBounds"/></mxGeometry></mxCell><mxCell id="6N414X3jIMNz7iww7mdx-186" value="is_cancelled" style="shape=partialRectangle;connectable=0;fillColor=none;top=0;left=0;bottom=0;right=0;align=left;spacingLeft=6;overflow=hidden;labelBorderColor=none;" parent="6N414X3jIMNz7iww7mdx-184" vertex="1"><mxGeometry x="30" width="130" height="30" as="geometry"><mxRectangle width="130" height="30" as="alternateBounds"/></mxGeometry></mxCell><mxCell id="6N414X3jIMNz7iww7mdx-83" value="User" style="swimlane;childLayout=stackLayout;horizontal=1;startSize=30;horizontalStack=0;rounded=1;fontSize=14;fontStyle=0;strokeWidth=2;resizeParent=0;resizeLast=1;shadow=0;dashed=0;align=center;" parent="1" vertex="1"><mxGeometry x="80" y="85" width="160" height="120" as="geometry"/></mxCell><mxCell id="6N414X3jIMNz7iww7mdx-109" value="" style="shape=table;startSize=0;container=1;collapsible=1;childLayout=tableLayout;fixedRows=1;rowLines=0;fontStyle=0;align=center;resizeLast=1;strokeColor=none;fillColor=none;collapsible=0;" parent="6N414X3jIMNz7iww7mdx-83" vertex="1"><mxGeometry y="30" width="160" height="90" as="geometry"/></mxCell><mxCell id="6N414X3jIMNz7iww7mdx-110" value="" style="shape=tableRow;horizontal=0;startSize=0;swimlaneHead=0;swimlaneBody=0;fillColor=none;collapsible=0;dropTarget=0;points=[[0,0.5],[1,0.5]];portConstraint=eastwest;top=0;left=0;right=0;bottom=1;" parent="6N414X3jIMNz7iww7mdx-109" vertex="1"><mxGeometry width="160" height="30" as="geometry"/></mxCell><mxCell id="6N414X3jIMNz7iww7mdx-111" value="PK" style="shape=partialRectangle;connectable=0;fillColor=none;top=0;left=0;bottom=0;right=0;fontStyle=1;overflow=hidden;" parent="6N414X3jIMNz7iww7mdx-110" vertex="1"><mxGeometry width="30" height="30" as="geometry"><mxRectangle width="30" height="30" as="alternateBounds"/></mxGeometry></mxCell><mxCell id="6N414X3jIMNz7iww7mdx-112" value="ID" style="shape=partialRectangle;connectable=0;fillColor=none;top=0;left=0;bottom=0;right=0;align=left;spacingLeft=6;fontStyle=5;overflow=hidden;" parent="6N414X3jIMNz7iww7mdx-110" vertex="1"><mxGeometry x="30" width="130" height="30" as="geometry"><mxRectangle width="130" height="30" as="alternateBounds"/></mxGeometry></mxCell><mxCell id="6N414X3jIMNz7iww7mdx-158" value="" style="shape=tableRow;horizontal=0;startSize=0;swimlaneHead=0;swimlaneBody=0;fillColor=none;collapsible=0;dropTarget=0;points=[[0,0.5],[1,0.5]];portConstraint=eastwest;top=0;left=0;right=0;bottom=1;labelBorderColor=none;" parent="6N414X3jIMNz7iww7mdx-109" vertex="1"><mxGeometry y="30" width="160" height="30" as="geometry"/></mxCell><mxCell id="6N414X3jIMNz7iww7mdx-159" value="PK" style="shape=partialRectangle;connectable=0;fillColor=none;top=0;left=0;bottom=0;right=0;fontStyle=1;overflow=hidden;labelBorderColor=none;" parent="6N414X3jIMNz7iww7mdx-158" vertex="1"><mxGeometry width="30" height="30" as="geometry"><mxRectangle width="30" height="30" as="alternateBounds"/></mxGeometry></mxCell><mxCell id="6N414X3jIMNz7iww7mdx-160" value="email" style="shape=partialRectangle;connectable=0;fillColor=none;top=0;left=0;bottom=0;right=0;align=left;spacingLeft=6;fontStyle=5;overflow=hidden;labelBorderColor=none;" parent="6N414X3jIMNz7iww7mdx-158" vertex="1"><mxGeometry x="30" width="130" height="30" as="geometry"><mxRectangle width="130" height="30" as="alternateBounds"/></mxGeometry></mxCell><mxCell id="6N414X3jIMNz7iww7mdx-162" value="" style="shape=tableRow;horizontal=0;startSize=0;swimlaneHead=0;swimlaneBody=0;fillColor=none;collapsible=0;dropTarget=0;points=[[0,0.5],[1,0.5]];portConstraint=eastwest;top=0;left=0;right=0;bottom=0;labelBorderColor=none;" parent="6N414X3jIMNz7iww7mdx-109" vertex="1"><mxGeometry y="60" width="160" height="30" as="geometry"/></mxCell><mxCell id="6N414X3jIMNz7iww7mdx-163" value="" style="shape=partialRectangle;connectable=0;fillColor=none;top=0;left=0;bottom=0;right=0;editable=1;overflow=hidden;labelBorderColor=none;" parent="6N414X3jIMNz7iww7mdx-162" vertex="1"><mxGeometry width="30" height="30" as="geometry"><mxRectangle width="30" height="30" as="alternateBounds"/></mxGeometry></mxCell><mxCell id="6N414X3jIMNz7iww7mdx-164" value="name" style="shape=partialRectangle;connectable=0;fillColor=none;top=0;left=0;bottom=0;right=0;align=left;spacingLeft=6;overflow=hidden;labelBorderColor=none;" parent="6N414X3jIMNz7iww7mdx-162" vertex="1"><mxGeometry x="30" width="130" height="30" as="geometry"><mxRectangle width="130" height="30" as="alternateBounds"/></mxGeometry></mxCell><mxCell id="6N414X3jIMNz7iww7mdx-85" value="User" style="swimlane;fontStyle=1;align=center;verticalAlign=top;childLayout=stackLayout;horizontal=1;startSize=26;horizontalStack=0;resizeParent=1;resizeParentMax=0;resizeLast=0;collapsible=1;marginBottom=0;" parent="1" vertex="1"><mxGeometry x="80" y="320" width="160" height="190" as="geometry"><mxRectangle x="470" y="240" width="100" height="26" as="alternateBounds"/></mxGeometry></mxCell><mxCell id="6N414X3jIMNz7iww7mdx-86" value="+ ID: str" style="text;strokeColor=none;fillColor=none;align=left;verticalAlign=top;spacingLeft=4;spacingRight=4;overflow=hidden;rotatable=0;points=[[0,0.5],[1,0.5]];portConstraint=eastwest;" parent="6N414X3jIMNz7iww7mdx-85" vertex="1"><mxGeometry y="26" width="160" height="26" as="geometry"/></mxCell><mxCell id="6N414X3jIMNz7iww7mdx-87" value="+ name: str" style="text;strokeColor=none;fillColor=none;align=left;verticalAlign=top;spacingLeft=4;spacingRight=4;overflow=hidden;rotatable=0;points=[[0,0.5],[1,0.5]];portConstraint=eastwest;" parent="6N414X3jIMNz7iww7mdx-85" vertex="1"><mxGeometry y="52" width="160" height="26" as="geometry"/></mxCell><mxCell id="6N414X3jIMNz7iww7mdx-88" value="+ email: str" style="text;strokeColor=none;fillColor=none;align=left;verticalAlign=top;spacingLeft=4;spacingRight=4;overflow=hidden;rotatable=0;points=[[0,0.5],[1,0.5]];portConstraint=eastwest;" parent="6N414X3jIMNz7iww7mdx-85" vertex="1"><mxGeometry y="78" width="160" height="26" as="geometry"/></mxCell><mxCell id="6N414X3jIMNz7iww7mdx-89" value="+ Calendar.ID: str" style="text;strokeColor=none;fillColor=none;align=left;verticalAlign=top;spacingLeft=4;spacingRight=4;overflow=hidden;rotatable=0;points=[[0,0.5],[1,0.5]];portConstraint=eastwest;" parent="6N414X3jIMNz7iww7mdx-85" vertex="1"><mxGeometry y="104" width="160" height="26" as="geometry"/></mxCell><mxCell id="6N414X3jIMNz7iww7mdx-90" value="" style="line;strokeWidth=1;fillColor=none;align=left;verticalAlign=middle;spacingTop=-1;spacingLeft=3;spacingRight=3;rotatable=0;labelPosition=right;points=[];portConstraint=eastwest;" parent="6N414X3jIMNz7iww7mdx-85" vertex="1"><mxGeometry y="130" width="160" height="8" as="geometry"/></mxCell><mxCell id="6N414X3jIMNz7iww7mdx-91" value="+ method(type): type" style="text;strokeColor=none;fillColor=none;align=left;verticalAlign=top;spacingLeft=4;spacingRight=4;overflow=hidden;rotatable=0;points=[[0,0.5],[1,0.5]];portConstraint=eastwest;" parent="6N414X3jIMNz7iww7mdx-85" vertex="1"><mxGeometry y="138" width="160" height="26" as="geometry"/></mxCell><mxCell id="6N414X3jIMNz7iww7mdx-92" value="+ method(type): type" style="text;strokeColor=none;fillColor=none;align=left;verticalAlign=top;spacingLeft=4;spacingRight=4;overflow=hidden;rotatable=0;points=[[0,0.5],[1,0.5]];portConstraint=eastwest;" parent="6N414X3jIMNz7iww7mdx-85" vertex="1"><mxGeometry y="164" width="160" height="26" as="geometry"/></mxCell><mxCell id="6N414X3jIMNz7iww7mdx-93" value="Calendar" style="swimlane;fontStyle=1;align=center;verticalAlign=top;childLayout=stackLayout;horizontal=1;startSize=26;horizontalStack=0;resizeParent=1;resizeParentMax=0;resizeLast=0;collapsible=1;marginBottom=0;" parent="1" vertex="1"><mxGeometry x="360" y="320" width="160" height="138" as="geometry"><mxRectangle x="470" y="240" width="100" height="26" as="alternateBounds"/></mxGeometry></mxCell><mxCell id="6N414X3jIMNz7iww7mdx-94" value="+ ID: str" style="text;strokeColor=none;fillColor=none;align=left;verticalAlign=top;spacingLeft=4;spacingRight=4;overflow=hidden;rotatable=0;points=[[0,0.5],[1,0.5]];portConstraint=eastwest;" parent="6N414X3jIMNz7iww7mdx-93" vertex="1"><mxGeometry y="26" width="160" height="26" as="geometry"/></mxCell><mxCell id="6N414X3jIMNz7iww7mdx-95" value="+ User.ID: str" style="text;strokeColor=none;fillColor=none;align=left;verticalAlign=top;spacingLeft=4;spacingRight=4;overflow=hidden;rotatable=0;points=[[0,0.5],[1,0.5]];portConstraint=eastwest;" parent="6N414X3jIMNz7iww7mdx-93" vertex="1"><mxGeometry y="52" width="160" height="26" as="geometry"/></mxCell><mxCell id="6N414X3jIMNz7iww7mdx-96" value="" style="line;strokeWidth=1;fillColor=none;align=left;verticalAlign=middle;spacingTop=-1;spacingLeft=3;spacingRight=3;rotatable=0;labelPosition=right;points=[];portConstraint=eastwest;" parent="6N414X3jIMNz7iww7mdx-93" vertex="1"><mxGeometry y="78" width="160" height="8" as="geometry"/></mxCell><mxCell id="6N414X3jIMNz7iww7mdx-97" value="+ method(type): type" style="text;strokeColor=none;fillColor=none;align=left;verticalAlign=top;spacingLeft=4;spacingRight=4;overflow=hidden;rotatable=0;points=[[0,0.5],[1,0.5]];portConstraint=eastwest;" parent="6N414X3jIMNz7iww7mdx-93" vertex="1"><mxGeometry y="86" width="160" height="26" as="geometry"/></mxCell><mxCell id="6N414X3jIMNz7iww7mdx-98" value="+ method(type): type" style="text;strokeColor=none;fillColor=none;align=left;verticalAlign=top;spacingLeft=4;spacingRight=4;overflow=hidden;rotatable=0;points=[[0,0.5],[1,0.5]];portConstraint=eastwest;" parent="6N414X3jIMNz7iww7mdx-93" vertex="1"><mxGeometry y="112" width="160" height="26" as="geometry"/></mxCell><mxCell id="6N414X3jIMNz7iww7mdx-101" value="Event" style="swimlane;fontStyle=1;align=center;verticalAlign=top;childLayout=stackLayout;horizontal=1;startSize=26;horizontalStack=0;resizeParent=1;resizeParentMax=0;resizeLast=0;collapsible=1;marginBottom=0;" parent="1" vertex="1"><mxGeometry x="920" y="320" width="160" height="164" as="geometry"/></mxCell><mxCell id="6N414X3jIMNz7iww7mdx-102" value="+ ID: str" style="text;strokeColor=none;fillColor=none;align=left;verticalAlign=top;spacingLeft=4;spacingRight=4;overflow=hidden;rotatable=0;points=[[0,0.5],[1,0.5]];portConstraint=eastwest;" parent="6N414X3jIMNz7iww7mdx-101" vertex="1"><mxGeometry y="26" width="160" height="26" as="geometry"/></mxCell><mxCell id="6N414X3jIMNz7iww7mdx-103" value="+ start_timestamp: str" style="text;strokeColor=none;fillColor=none;align=left;verticalAlign=top;spacingLeft=4;spacingRight=4;overflow=hidden;rotatable=0;points=[[0,0.5],[1,0.5]];portConstraint=eastwest;" parent="6N414X3jIMNz7iww7mdx-101" vertex="1"><mxGeometry y="52" width="160" height="26" as="geometry"/></mxCell><mxCell id="6N414X3jIMNz7iww7mdx-104" value="+ end_timestamp: str" style="text;strokeColor=none;fillColor=none;align=left;verticalAlign=top;spacingLeft=4;spacingRight=4;overflow=hidden;rotatable=0;points=[[0,0.5],[1,0.5]];portConstraint=eastwest;" parent="6N414X3jIMNz7iww7mdx-101" vertex="1"><mxGeometry y="78" width="160" height="26" as="geometry"/></mxCell><mxCell id="6N414X3jIMNz7iww7mdx-105" value="+ Calendar.ID: str" style="text;strokeColor=none;fillColor=none;align=left;verticalAlign=top;spacingLeft=4;spacingRight=4;overflow=hidden;rotatable=0;points=[[0,0.5],[1,0.5]];portConstraint=eastwest;" parent="6N414X3jIMNz7iww7mdx-101" vertex="1"><mxGeometry y="104" width="160" height="26" as="geometry"/></mxCell><mxCell id="6N414X3jIMNz7iww7mdx-106" value="" style="line;strokeWidth=1;fillColor=none;align=left;verticalAlign=middle;spacingTop=-1;spacingLeft=3;spacingRight=3;rotatable=0;labelPosition=right;points=[];portConstraint=eastwest;" parent="6N414X3jIMNz7iww7mdx-101" vertex="1"><mxGeometry y="130" width="160" height="8" as="geometry"/></mxCell><mxCell id="6N414X3jIMNz7iww7mdx-107" value="+ method(type): type" style="text;strokeColor=none;fillColor=none;align=left;verticalAlign=top;spacingLeft=4;spacingRight=4;overflow=hidden;rotatable=0;points=[[0,0.5],[1,0.5]];portConstraint=eastwest;" parent="6N414X3jIMNz7iww7mdx-101" vertex="1"><mxGeometry y="138" width="160" height="26" as="geometry"/></mxCell><mxCell id="6N414X3jIMNz7iww7mdx-181" value="" style="edgeStyle=entityRelationEdgeStyle;fontSize=12;html=1;endArrow=ERoneToMany;startArrow=ERmandOne;rounded=0;" parent="1" source="6N414X3jIMNz7iww7mdx-78" target="6N414X3jIMNz7iww7mdx-75" edge="1"><mxGeometry width="100" height="100" relative="1" as="geometry"><mxPoint x="550" y="400" as="sourcePoint"/><mxPoint x="650" y="300" as="targetPoint"/></mxGeometry></mxCell><mxCell id="6N414X3jIMNz7iww7mdx-182" value="" style="edgeStyle=entityRelationEdgeStyle;fontSize=12;html=1;endArrow=ERoneToMany;startArrow=ERmandOne;rounded=0;" parent="1" source="6N414X3jIMNz7iww7mdx-80" target="6N414X3jIMNz7iww7mdx-75" edge="1"><mxGeometry width="100" height="100" relative="1" as="geometry"><mxPoint x="740" y="390" as="sourcePoint"/><mxPoint x="840" y="290" as="targetPoint"/></mxGeometry></mxCell></root></mxGraphModel></diagram></mxfile>